<?xml version="1.0" encoding="utf-8"?>
<!-- Generator: Adobe Illustrator 25.4.1, SVG Export Plug-In . SVG Version: 6.00 Build 0)  -->
<svg version="1.1" id="groupLogo-02-sp-a" xmlns="http://www.w3.org/2000/svg" xmlns:xlink="http://www.w3.org/1999/xlink" x="0px"
	 y="0px" viewBox="0 0 160 37" style="enable-background:new 0 0 160 37;" xml:space="preserve" width="160" height="37">
<style type="text/css">
	.st0{fill:#e60000;}
</style>
<path id="speechballoon" class="st0" d="M155.2,0H4.8C2.1,0,0,2.1,0,4.8v16.3c0,1.4,0.6,2.8,1.6,3.8l11.5,11.5v-5.8h142.2
	c2.6,0,4.8-2.1,4.8-4.8v-21C160,2.2,157.9,0,155.2,0C155.3,0,155.3,0,155.2,0z M155.9,26.7H13.1v3.9l-9-9V3.9h151.8V26.7z"/>
<path id="bandainamco" d="M122.3,10.6v11h-2.7v-8.1l-3,4.3c-0.5,0.7-1.4,0.9-2.1,0.4c-0.1-0.1-0.3-0.2-0.4-0.4l-3-4.4v8.1h-2.7v-11
	c0-0.6,0.3-1.1,0.7-1.4c0.8-0.5,1.8-0.3,2.3,0.4l3.9,5.6l3.9-5.6c0.5-0.8,1.6-0.9,2.3-0.4C122.1,9.5,122.4,10,122.3,10.6z M91,17.1
	l-5.3-7.5c-0.5-0.8-1.6-0.9-2.3-0.4c0,0,0,0,0,0c-0.4,0.3-0.7,0.8-0.7,1.4v11.1h2.7v-8.1l5.3,7.5c0.5,0.8,1.6,0.9,2.3,0.4
	c0,0,0,0,0,0l0,0c0.5-0.3,0.7-0.9,0.7-1.4V9H91V17.1z M131.4,11c1.2,0,2.4,0.5,3.3,1.4l1.5-2.1c-1.4-1.1-3.1-1.6-4.8-1.6
	c-3.9,0-7.2,2.6-7.2,6.6s3.3,6.6,7.2,6.6c1.7,0,3.4-0.5,4.8-1.6l-1.5-2.1c-0.9,0.9-2,1.4-3.3,1.4c-2.3,0-4.1-1.8-4.2-4.1
	c0-0.1,0-0.1,0-0.2c-0.1-2.3,1.7-4.2,4-4.3C131.3,11,131.4,11,131.4,11z M150.8,15.3c0,4-3.2,6.6-7,6.6s-7-2.6-7-6.6s3.2-6.6,7-6.6
	S150.8,11.3,150.8,15.3L150.8,15.3z M147.8,15.3c0.1-2.2-1.6-4.1-3.8-4.2c-2.2-0.1-4.1,1.6-4.2,3.8c0,0.1,0,0.3,0,0.4
	c-0.1,2.2,1.6,4.1,3.8,4.2c2.2,0.1,4.1-1.6,4.2-3.8C147.8,15.6,147.8,15.4,147.8,15.3z M102.8,10.1l4.7,11.5h-2.9l-1.1-2.9h-5.1
	l-1.1,2.9h-2.8c0,0,3.5-8.6,4.7-11.5c0.3-1.1,1.5-1.6,2.5-1.3C102.2,9,102.7,9.5,102.8,10.1L102.8,10.1z M102.6,16.6l-1.6-4.4
	l-1.7,4.4L102.6,16.6z M21.8,18.2c0,1.9-1.5,3.4-3.3,3.4c-0.1,0-0.1,0-0.2,0h-6.9c-0.6,0-1-0.4-1.1-0.9c0,0,0-0.1,0-0.1V10
	c0-0.6,0.4-1,1-1c0,0,0,0,0.1,0h6.1c1.8-0.1,3.4,1.2,3.5,3c0,0,0,0.1,0,0.1c0,1.4-0.9,2.6-2.3,3C20.5,15.2,21.8,16.5,21.8,18.2z
	 M13.1,14.1h3.5c0.8,0.1,1.5-0.5,1.6-1.3c0,0,0-0.1,0-0.1l0,0c0-0.8-0.7-1.4-1.5-1.4c0,0-0.1,0-0.1,0h-3.5V14.1z M18.9,17.8
	c0-0.9-0.8-1.6-1.6-1.5c0,0-0.1,0-0.1,0h-4.1v3.1h4.1c0.9,0.1,1.6-0.6,1.7-1.4C18.9,17.8,18.9,17.8,18.9,17.8z M44.5,17.1l-5.3-7.5
	c-0.5-0.8-1.6-0.9-2.3-0.4c0,0,0,0,0,0c-0.4,0.3-0.7,0.8-0.7,1.4v11.1h2.7v-8.1l5.3,7.5c0.5,0.8,1.6,0.9,2.3,0.4c0,0,0,0,0,0l0,0
	c0.5-0.3,0.7-0.9,0.7-1.4V9h-2.7V17.1z M74.6,21.6h2.8V9h-2.8L74.6,21.6z M60.9,15.2c0,4.2-3.1,6.4-6.5,6.4h-3.6
	c-0.6,0-1-0.4-1.1-0.9c0-0.1,0-0.1,0-0.2V10c0-0.6,0.4-1,1-1c0,0,0.1,0,0.1,0h3.6C57.9,9,60.9,11,60.9,15.2z M58,15.2
	c0-3-2.2-4-4.1-4h-1.4v8.1h1.4C56,19.3,58,18.1,58,15.2L58,15.2z M30.6,10.1l4.6,11.5h-2.9l-1.1-2.9h-5.1L25,21.6h-2.9l4.6-11.5
	c0.3-1.1,1.5-1.6,2.5-1.3C29.9,9,30.4,9.5,30.6,10.1z M30.4,16.6l-1.7-4.4L27,16.6H30.4z M69.1,10.1l4.7,11.5h-2.9l-1.1-2.9h-5.2
	l-1.1,2.9h-2.8l4.6-11.5c0.3-1.1,1.5-1.6,2.5-1.3C68.4,9,68.9,9.5,69.1,10.1z M68.9,16.6l-1.7-4.4l-1.7,4.4H68.9z"/>
</svg>
